PathFileType	4	(X/Y/Z)	S01_0013_Gait_markers.trc
DataRate	CameraRate	NumFrames	NumMarkers	Units	OrigDataRate	OrigDataStartFrame	OrigNumFrames
250.000000	250.000000	4	54	mm	250.000000	218	349
Frame#	Time	HEAD_ANT			R_HEAD			L_HEAD			C7			R_BACK			L_BACK			STERNUM			R_ACROMION			R_HUM_PROX			R_HUM_ANT			R_HUM_POST			R_ELBOW_LAT			R_ELBOW_MED			R_FOREARM			R_WIRST_LAT			R_WRITS_MED			R_HAND			L_ACROMION			L_HUM_PROX			L_HUM_ANT			L_HUM_POST			L_ELBOW_LAT			L_ELBOW_MED			L_FOREARM			L_WRIST_LAT			L_WIRST_MED			L_HAND			R_ILIAC			SACRUM			L_ILIAC			R_GTROCH			R_THIGH__1			R_THIGH_2			R_THIGH_3			R_THIGH_4			R_SHANK_1			R_SHANK_2			R_SHANK_3			R_SHANK_4			R_HEEL			R_FOOT_LAT			R_FOOT_MED			L_GTROCH			L_THIGH_1			L_THIGH_2			L_THIGH_3			L_THIGH_4			L_SHANK_1			L_SHANK_2			L_SHANK_3			L_SHANK_4			L_HEEL			L_FOOT_LAT			L_FOOT_MED			
		X1	Y1	Z1	X2	Y2	Z2	X3	Y3	Z3	X4	Y4	Z4	X5	Y5	Z5	X6	Y6	Z6	X7	Y7	Z7	X8	Y8	Z8	X9	Y9	Z9	X10	Y10	Z10	X11	Y11	Z11	X12	Y12	Z12	X13	Y13	Z13	X14	Y14	Z14	X15	Y15	Z15	X16	Y16	Z16	X17	Y17	Z17	X18	Y18	Z18	X19	Y19	Z19	X20	Y20	Z20	X21	Y21	Z21	X22	Y22	Z22	X23	Y23	Z23	X24	Y24	Z24	X25	Y25	Z25	X26	Y26	Z26	X27	Y27	Z27	X28	Y28	Z28	X29	Y29	Z29	X30	Y30	Z30	X31	Y31	Z31	X32	Y32	Z32	X33	Y33	Z33	X34	Y34	Z34	X35	Y35	Z35	X36	Y36	Z36	X37	Y37	Z37	X38	Y38	Z38	X39	Y39	Z39	X40	Y40	Z40	X41	Y41	Z41	X42	Y42	Z42	X43	Y43	Z43	X44	Y44	Z44	X45	Y45	Z45	X46	Y46	Z46	X47	Y47	Z47	X48	Y48	Z48	X49	Y49	Z49	X50	Y50	Z50	X51	Y51	Z51	X52	Y52	Z52	X53	Y53	Z53	X54	Y54	Z54	

219	0.872	1279.18603515625	1746.44189453125	-326.7840881347652	1220.498046875	1697.04931640625	-247.9150085449215	1221.084350585938	1696.80517578125	-396.3565063476559	1085.811645507812	1523.678466796875	-324.1444091796872	1016.626770019531	1329.192504882812	-246.9393310546872	1020.433837890625	1326.285766601562	-387.4294128417966	1269.5283203125	1365.804443359375	-316.1105041503903	1163.986328125	1485.0576171875	-148.6518859863278	1131.210083007812	1328.533447265625	-50.79694366455048	1193.787231445312	1243.896606445312	-46.27532958984347	1073.132202148438	1245.010375976562	-32.80013656616183	1121.004028320312	1139.127319335938	-24.16637992858861	1094.27978515625	1131.35400390625	-103.5806579589841	1238.101196289062	964.3225708007812	-26.60978889465311	1278.406005859375	900.7869262695312	-68.11090087890605	1216.302734375	872.9959106445312	-23.31121444702129	1293.51171875	815.1195068359375	-11.82531547546369	1169.60888671875	1474.574951171875	-486.3379211425778	1155.273315429688	1306.420776367188	-578.5748291015622	1217.74951171875	1226.443725585938	-573.2951660156248	1098.5048828125	1228.24267578125	-605.771789550781	1156.524169921875	1124.198120117188	-608.9752197265623	1104.000244140625	1118.501586914063	-555.085998535156	1257.320922851562	946.1149291992189	-585.6843261718748	1279.380615234375	882.2166748046876	-531.4030151367185	1242.3984375	865.2517700195314	-598.7286376953123	1314.123168945312	804.6119384765626	-579.6068115234373	1164.519409179688	1075.892822265625	-137.2799835205076	1040.677368164062	1045.678833007812	-308.2973632812498	1164.213745117188	1074.527099609375	-482.1617736816404	1122.877685546875	922.2701416015625	-123.7090225219725	1200.293212890625	645.0860595703125	-136.3930816650389	1254.682861328125	667.143310546875	-128.8615570068358	1270.248413085938	563.4037475585938	-153.8319549560546	1205.89306640625	563.6828002929688	-151.2494964599608	1096.687255859375	404.5654907226563	-144.5930023193359	1125.400024414062	352.6505126953126	-154.8712615966796	1067.527587890625	290.4234008789063	-170.5771789550781	1023.546081542969	336.2973937988282	-164.0178222656249	859.7599487304688	210.2122497558594	-245.330093383789	952.8743896484375	80.6589050292969	-158.3627777099609	1005.639404296875	57.35699081420904	-242.2325134277344	1139.648681640625	962.6032714843751	-489.396301269531	1264.600708007812	678.7702636718751	-456.1886291503905	1211.030517578125	690.9871215820314	-478.5896606445311	1203.996459960938	589.8003540039064	-441.172882080078	1266.396606445312	600.8976440429689	-427.9368896484374	1227.0888671875	324.7272338867189	-416.4692687988281	1169.021850585938	307.5162658691407	-422.8374328613281	1158.379638671875	222.9734649658204	-403.5559692382812	1221.471557617188	224.812469482422	-388.0007629394531	1097.481323242188	42.98714065551765	-326.7184753417969	1275.097900390625	20.8442096710206	-392.262939453125	1308.306030273438	26.83743667602545	-282.3111267089844	
220	0.876	1284.47119140625	1747.022094726562	-326.6610717773434	1225.822265625	1697.859130859375	-247.9188232421871	1226.286987304688	1697.565307617188	-396.3153076171871	1090.94482421875	1524.408203125	-324.2428588867184	1021.809814453125	1329.812744140625	-247.1211242675778	1025.623779296875	1327.122192382812	-387.9044799804685	1274.762084960938	1366.591674804688	-315.9857482910153	1168.814208984375	1485.759399414062	-148.8614349365231	1135.6533203125	1329.219848632812	-50.87196350097626	1198.153686523438	1244.489868164062	-46.20325088500949	1077.256591796875	1245.817626953125	-33.23402404785129	1126.563720703125	1139.432006835938	-24.16268539428686	1098.575561523438	1132.2412109375	-103.9288253784177	1241.651977539062	964.8259887695312	-26.34032058715799	1281.9384765625	901.0291137695312	-67.64936065673808	1219.542846679688	873.4427490234375	-22.46925354003887	1296.577880859375	815.3567504882812	-11.24373531341535	1174.90380859375	1475.55517578125	-486.3703613281247	1160.977783203125	1307.386474609375	-578.7875976562497	1223.55908203125	1227.491943359375	-573.5211791992185	1104.167724609375	1228.850830078125	-606.121154785156	1164.029296875	1125.180419921875	-608.8535156249998	1109.726806640625	1119.370361328125	-555.4571533203123	1264.506469726562	947.3505249023439	-585.186828613281	1286.808715820312	883.8086547851564	-530.8221435546873	1249.992797851562	866.4468994140626	-598.1475830078123	1322.011840820312	806.3800659179689	-578.7017822265623	1170.179443359375	1077.057495117188	-137.731994628906	1045.9326171875	1046.585693359375	-308.4875488281248	1169.430297851562	1075.131103515625	-482.4155578613279	1128.791259765625	923.3917846679688	-123.5455169677732	1208.497436523438	646.2422485351562	-136.2577362060545	1262.80224609375	668.5999145507812	-128.9013824462889	1278.915161132812	564.9024047851562	-154.2475738525389	1214.188842773438	565.1792602539062	-151.4497528076171	1107.052856445312	404.5345458984376	-144.6115417480468	1136.483764648438	353.0972900390626	-154.7543029785155	1079.40185546875	289.2726135253907	-170.5507354736328	1034.595092773438	335.5244445800782	-163.9252624511718	872.1875610351562	206.292709350586	-244.4276275634765	969.1339111328125	78.733024597168	-157.6162567138672	1021.687316894531	56.68630218505865	-242.2808074951172	1144.43896484375	962.9216918945314	-489.4860534667966	1267.41064453125	678.4062500000001	-456.1539306640623	1213.579711914062	691.3698730468751	-478.9335021972655	1206.119750976562	590.2819213867189	-441.3294677734374	1268.407592773438	600.5131225585939	-428.0456542968749	1227.661865234375	324.7263488769532	-416.5259399414062	1170.030517578125	307.1184692382814	-422.2341308593749	1158.698852539062	223.1678924560548	-403.4075927734374	1221.442260742188	225.1739807128907	-388.4639282226562	1097.643310546875	43.17771148681648	-326.522705078125	1275.105102539062	20.840524673462	-392.2708740234375	1308.41943359375	26.84583854675299	-282.3390502929688	
221	0.88	1289.682006835938	1747.661254882812	-326.4667053222652	1231.01123046875	1698.539306640625	-247.804046630859	1231.597534179688	1698.26513671875	-396.1482543945309	1096.073486328125	1525.07080078125	-324.2413940429684	1027.08056640625	1330.305053710938	-247.6537170410153	1030.837158203125	1327.92138671875	-388.4942932128903	1279.878662109375	1367.423217773438	-315.8173217773435	1173.660034179688	1486.3779296875	-148.960525512695	1139.969116210938	1329.834716796875	-50.93342208862275	1202.414794921875	1244.963012695312	-46.08105850219699	1081.378540039062	1246.441284179688	-33.66235733032199	1130.6416015625	1140.131469726562	-24.46081733703588	1104.616088867188	1132.710693359375	-104.0840530395505	1245.384399414062	965.1804809570312	-25.84229850769022	1285.491455078125	901.1289672851562	-67.12866973876933	1222.96826171875	873.9403686523438	-22.4067668914793	1299.694580078125	815.4728393554688	-10.43844795227033	1180.249267578125	1476.54296875	-486.5479736328122	1166.509643554688	1308.142700195313	-579.0751342773434	1229.435180664062	1228.467529296875	-573.7350463867185	1110.075927734375	1229.567749023438	-606.3322753906248	1170.253295898438	1126.123901367188	-608.975646972656	1115.84716796875	1120.17333984375	-555.5355834960935	1271.564086914062	948.7723999023439	-584.7415771484373	1294.230834960938	885.4898071289064	-530.2726440429685	1257.57763671875	867.7192993164064	-597.4063720703123	1329.919311523438	808.1833496093751	-577.8948974609373	1178.30810546875	1078.849975585938	-138.709274291992	1050.679443359375	1047.465698242188	-309.1853332519529	1174.942626953125	1075.698120117188	-482.5451354980466	1134.73681640625	924.4386596679688	-123.5036392211912	1216.666259765625	647.4478759765625	-136.1218109130858	1270.8818359375	670.2045288085938	-129.1600341796874	1287.540649414062	566.5787963867188	-154.6206054687499	1222.72216796875	566.1275024414062	-151.4019775390624	1117.5849609375	404.5167541503907	-144.7655944824218	1147.456909179688	353.0314941406251	-154.7723999023437	1091.065185546875	288.9586181640626	-170.6613006591796	1046.071655273438	334.3143310546876	-163.5470123291015	884.766357421875	202.3346252441407	-243.6127471923828	984.5314331054688	76.638298034668	-157.9468994140625	1037.865844726562	56.15272521972662	-242.2465362548828	1148.763061523438	963.2267456054689	-489.4408264160154	1269.971923828125	678.1182250976564	-456.3395080566405	1216.908935546875	692.3745727539064	-478.3829345703123	1207.869995117188	590.3712768554689	-441.232940673828	1270.627807617188	600.2132568359376	-427.752716064453	1228.33251953125	324.6938476562501	-416.4913940429687	1170.125610351562	307.8268432617189	-422.5581970214843	1159.110717773438	223.3804779052735	-403.2651672363281	1221.719482421875	225.2028198242188	-388.4542846679687	1097.851806640625	43.4773139953614	-326.2674255371094	1275.146118164062	20.81956672668466	-392.2713317871094	1308.510009765625	26.84129714965827	-282.3863830566406	
222	0.884	1295.025268554688	1748.245239257812	-326.3702392578121	1236.234252929688	1699.1142578125	-247.6723937988278	1236.807739257812	1699.007202148438	-395.9896240234371	1101.2724609375	1525.750610351562	-324.3784484863278	1032.1103515625	1330.818725585938	-248.1061401367185	1036.011352539062	1328.711547851562	-389.1876525878903	1284.994506835938	1368.2734375	-315.9721984863278	1178.5693359375	1487.040161132812	-149.0150756835934	1144.448608398438	1330.44287109375	-51.08525848388642	1206.667602539062	1245.440185546875	-46.05496978759738	1085.467163085938	1247.12939453125	-34.22532653808566	1134.72412109375	1140.897583007812	-24.51028060913061	1109.109252929688	1133.24755859375	-104.5198287963865	1249.113647460938	965.4708251953125	-25.43894767761209	1289.263671875	901.3015747070312	-66.38455200195293	1226.359497070312	874.3789672851562	-21.97957420349102	1302.802124023438	815.5634155273438	-9.745976448058901	1185.4365234375	1477.184448242188	-486.729339599609	1172.143798828125	1309.034301757813	-579.4649047851559	1235.292846679688	1229.448486328125	-573.9982299804685	1116.088989257812	1230.2705078125	-606.6275634765623	1176.513671875	1126.921264648438	-609.175354003906	1121.543212890625	1120.750366210938	-555.734191894531	1278.557861328125	950.2581787109376	-584.322326660156	1301.66259765625	887.2257690429689	-529.4616699218748	1264.94482421875	868.9407348632814	-596.7861328124998	1337.811767578125	810.0797729492189	-576.966369628906	1183.666625976562	1080.009643554688	-139.2062835693357	1055.846923828125	1048.253540039062	-309.298400878906	1180.289672851562	1076.200927734375	-482.7187805175779	1140.548095703125	925.26123046875	-123.3855972290037	1224.799072265625	648.6918334960938	-136.3521423339842	1278.710571289062	671.6256103515625	-129.6470794677733	1296.06298828125	568.1820678710938	-154.8657226562499	1231.273803710938	567.4884033203125	-151.3608551025389	1128.055053710938	403.9093627929688	-144.6480560302734	1158.600708007812	352.5050964355469	-154.5144958496093	1102.968994140625	288.2017517089844	-170.5559387207031	1057.332885742188	332.7960510253907	-163.3562774658202	897.8130493164062	197.8042602539063	-242.6699981689453	1001.071533203125	74.7099304199219	-157.7489013671875	1054.130493164062	55.27887344360357	-242.4241638183594	1153.484741210938	963.4952392578126	-489.545715332031	1272.51806640625	677.7775878906251	-456.3056335449217	1219.80029296875	692.5139160156251	-478.1179199218748	1209.694091796875	590.5928955078126	-440.8014526367186	1272.756225585938	599.9467163085939	-427.958770751953	1228.89990234375	324.7600708007814	-416.4226989746093	1171.17138671875	307.3872375488282	-421.9393920898437	1159.720458984375	223.2165832519532	-402.8889770507812	1222.103149414062	225.2280273437501	-388.4116516113281	1097.927001953125	43.63430023193366	-326.0701293945312	1275.128295898438	20.8517780303956	-392.2472839355469	1308.638549804688	26.83926200866706	-282.4333801269531	
